<?xml version="1.0" encoding="UTF-8" standalone="no"?>
<svg width="89px" height="89px" viewBox="0 0 89 89" version="1.1" xmlns="http://www.w3.org/2000/svg" xmlns:xlink="http://www.w3.org/1999/xlink" xmlns:sketch="http://www.bohemiancoding.com/sketch/ns">
    <!-- Generator: Sketch 3.3.3 (12081) - http://www.bohemiancoding.com/sketch -->
    <title>icon</title>
    <desc>Created with Sketch.</desc>
    <defs></defs>
    <g id="Page-1" stroke="none" stroke-width="1" fill="none" fill-rule="evenodd" sketch:type="MSPage">
        <g id="home" sketch:type="MSArtboardGroup" transform="translate(-771.000000, -1231.000000)">
            <g id="challenge2-copy" sketch:type="MSLayerGroup" transform="translate(771.000000, 1231.000000)">
                <g id="icon">
                    <g id="Oval-36-+-Oval-35-Copy-+-Group">
                        <g id="Oval-36-+-Oval-35-Copy" sketch:type="MSShapeGroup">
                            <circle id="Oval-36" fill="#FBFBFB" cx="44.5" cy="44.5" r="44.5"></circle>
                            <circle id="Oval-35" fill="#F6F4F4" cx="44.5" cy="44.5" r="24.5"></circle>
                        </g>
                        <g id="Group" transform="translate(29.000000, 15.000000)">
                            <g id="Imported-Layers"></g>
                            <path d="M26.875,28.16 C26.238,12.141 18.684,5.621 16.961,4.34 L16.461,1.059 C16.398,0.648 16.016,0.367 15.605,0.43 C15.488,0.449 15.379,0.492 15.289,0.555 C15.07,0.641 14.895,0.832 14.836,1.082 C14.449,2.734 14.227,3.691 14.121,4.273 C12.609,5.371 4.773,11.824 4.125,28.148 C4.113,28.387 4.008,30.621 4.293,33.734 C3.258,35.312 -2.062,44.414 2.723,58.078 C2.828,58.383 3.113,58.582 3.43,58.582 C3.836,58.547 4.117,58.289 4.172,57.953 C4.18,57.895 5.184,52.277 10.988,51.332 C11.023,51.371 11.062,51.41 11.098,51.445 L12.031,54.051 C12.137,54.348 12.422,54.547 12.738,54.547 L18.062,54.547 C18.363,54.547 18.637,54.367 18.754,54.09 L19.855,51.5 C19.91,51.441 19.965,51.387 20.016,51.328 C25.793,52.262 26.793,57.715 26.836,57.949 C26.891,58.289 27.168,58.543 27.512,58.574 C27.895,58.578 28.18,58.379 28.285,58.074 C33.066,44.414 27.742,35.316 26.707,33.738 C26.988,30.625 26.887,28.395 26.875,28.16 Z" id="Fill-4" fill="#FF9C00" sketch:type="MSShapeGroup"></path>
                            <path d="M14.934,5.547 C15.18,5.543 15.746,5.543 16.059,5.543 C16.617,5.965 18.059,7.172 19.641,9.367 L11.383,9.367 C12.953,7.18 14.375,5.973 14.934,5.547 L14.934,5.547 Z" id="Path" fill="#FFB847" sketch:type="MSShapeGroup"></path>
                            <path d="M10.621,10.488 L20.406,10.488 C20.578,10.754 20.75,11.043 20.922,11.34 L10.102,11.34 C10.273,11.047 10.445,10.762 10.621,10.488 L10.621,10.488 Z" id="Path" fill="#FFB847" sketch:type="MSShapeGroup"></path>
                            <path d="M4.598,36.32 C5.082,39.609 6.023,43.422 7.812,46.832 C6.652,47.273 4.445,48.324 2.484,50.473 C1.723,43.828 3.398,38.875 4.598,36.32 L4.598,36.32 Z" id="Path" fill="#FF9C00" sketch:type="MSShapeGroup"></path>
                            <path d="M3.457,55.426 C3.125,54.234 2.871,53.086 2.691,51.977 C4.715,49.387 7.281,48.227 8.371,47.832 C8.82,48.594 9.312,49.328 9.859,50.027 C6.203,50.938 4.348,53.508 3.457,55.426 L3.457,55.426 Z" id="Path" fill="#FFB847" sketch:type="MSShapeGroup"></path>
                            <path d="M17.566,53.047 L13.266,53.047 L12.848,51.887 L18.059,51.887 L17.566,53.047 Z" id="Path" fill="#FFB847" sketch:type="MSShapeGroup"></path>
                            <path d="M18.844,50.387 L12.156,50.387 C4.949,42.926 5.613,28.375 5.621,28.219 C5.898,21.188 7.594,16.062 9.477,12.465 L21.543,12.465 C23.324,15.891 25.09,21.035 25.375,28.227 C25.387,28.375 26.055,42.918 18.844,50.387 L18.844,50.387 Z" id="Path" fill="#FF9C00" sketch:type="MSShapeGroup"></path>
                            <path d="M27.543,55.426 C26.652,53.504 24.797,50.938 21.145,50.027 C21.691,49.328 22.184,48.594 22.633,47.828 C23.719,48.223 26.281,49.375 28.309,51.973 C28.129,53.082 27.879,54.23 27.543,55.426 L27.543,55.426 Z" id="Path" fill="#FFB847" sketch:type="MSShapeGroup"></path>
                            <path d="M23.191,46.832 C24.98,43.414 25.922,39.598 26.406,36.305 C26.914,37.367 27.5,38.844 27.957,40.684 C28.551,43.074 28.988,46.422 28.52,50.477 C26.559,48.328 24.352,47.273 23.191,46.832 L23.191,46.832 Z" id="Path" fill="#FF9C00" sketch:type="MSShapeGroup"></path>
                            <path d="M15.465,22.59 C13.637,22.59 12.148,21.102 12.148,19.273 C12.148,17.445 13.637,15.957 15.465,15.957 C17.293,15.957 18.781,17.445 18.781,19.273 C18.781,21.102 17.293,22.59 15.465,22.59" id="Fill-1" fill="#FFC363" sketch:type="MSShapeGroup"></path>
                            <path d="M15.465,17.457 C14.465,17.457 13.648,18.273 13.648,19.273 C13.648,20.273 14.465,21.09 15.465,21.09 C16.465,21.09 17.281,20.277 17.281,19.273 C17.281,18.273 16.465,17.457 15.465,17.457" id="Path" fill="#FFB847" sketch:type="MSShapeGroup"></path>
                            <path d="M15.848,42.746 L14.918,42.746 C12.098,42.746 9.801,40.449 9.801,37.629 L9.801,30.406 C9.801,27.586 12.098,25.289 14.918,25.289 L15.848,25.289 C18.668,25.289 20.965,27.586 20.965,30.406 L20.965,37.629 C20.965,40.453 18.668,42.746 15.848,42.746 L15.848,42.746 Z" id="Fill-3" fill="#FFB847" sketch:type="MSShapeGroup"></path>
                            <path d="M14.918,26.789 C12.922,26.789 11.301,28.41 11.301,30.406 L11.301,37.629 C11.301,39.625 12.922,41.246 14.918,41.246 L15.848,41.246 C17.844,41.246 19.465,39.625 19.465,37.629 L19.465,30.406 C19.465,28.41 17.844,26.789 15.848,26.789 L14.918,26.789 Z" id="Path" fill="#FF9C00" sketch:type="MSShapeGroup"></path>
                            <path d="M15.465,34.621 C13.637,34.621 12.148,33.133 12.148,31.305 C12.148,29.477 13.637,27.988 15.465,27.988 C17.293,27.988 18.781,29.477 18.781,31.305 C18.781,33.133 17.293,34.621 15.465,34.621" id="Fill-2" fill="#FFB847" sketch:type="MSShapeGroup"></path>
                        </g>
                    </g>
                </g>
            </g>
        </g>
    </g>
</svg>