<?xml version="1.0" encoding="UTF-8" standalone="no"?>
<svg width="89px" height="89px" viewBox="0 0 89 89" version="1.1" xmlns="http://www.w3.org/2000/svg" xmlns:xlink="http://www.w3.org/1999/xlink" xmlns:sketch="http://www.bohemiancoding.com/sketch/ns">
    <!-- Generator: Sketch 3.3.3 (12081) - http://www.bohemiancoding.com/sketch -->
    <title>icon</title>
    <desc>Created with Sketch.</desc>
    <defs></defs>
    <g id="Page-1" stroke="none" stroke-width="1" fill="none" fill-rule="evenodd" sketch:type="MSPage">
        <g id="home" sketch:type="MSArtboardGroup" transform="translate(-347.000000, -1666.000000)">
            <g id="solution1-copy" sketch:type="MSLayerGroup" transform="translate(347.000000, 1666.000000)">
                <g id="icon" sketch:type="MSShapeGroup">
                    <g>
                        <ellipse id="Oval-36" fill="#FBFBFB" cx="44.5" cy="44.5" rx="44.5" ry="44.5"></ellipse>
                        <ellipse id="Oval-35" fill="#F6F4F4" cx="44.5" cy="44.5" rx="24.5" ry="24.5"></ellipse>
                    </g>
                    <g id="Group" transform="translate(19.000000, 29.000000)">
                        <g id="Oval-36-+-Oval-35-Copy-2-+-Imported-Layers-+-Path-+-Path">
                            <g id="Imported-Layers-+-Path-+-Path">
                                <path d="M50.3780677,13.0657346 C50.0492798,11.0918884 49.495492,9.19573458 48.4985223,7.45573458 C47.2970071,5.35881151 45.6932192,3.67265766 43.5833708,2.50419612 C42.1833708,1.72881151 40.6742798,1.32650381 39.106098,1.10650381 C36.8833708,0.797273045 34.7553405,1.17265766 32.7197344,2.08650381 C30.9114011,2.89804228 29.3818556,4.12342689 27.9583708,5.4911192 C26.6470071,6.75265766 25.4750374,8.1411192 24.3303405,9.55650381 C24.1848859,9.73650381 24.0371586,9.90804228 23.8924617,10.0849654 C23.8477647,10.0518884 23.8273101,10.04035 23.8121586,10.0249654 C22.8356435,8.88650381 21.7765526,7.83727305 20.6076132,6.90573458 C18.8523101,5.51188843 16.9523101,4.44188843 14.7598859,3.90419612 C12.481098,3.34804228 10.2735223,3.51034997 8.12806772,4.40573458 C5.67806772,5.42804228 3.86064348,7.20342689 2.61215863,9.55034997 C1.18564348,12.2334269 0.653067723,15.0941961 1.22731015,18.1226577 C1.55231015,19.8388115 2.13564348,21.4495807 3.10306772,22.9126577 C4.27503742,24.6857346 5.77503742,26.0734269 7.68109803,26.99035 C8.88261318,27.57035 10.1636738,27.8888115 11.4894314,27.9757346 C13.1939768,28.09035 14.845492,27.8857346 16.3492798,26.9688115 C17.150795,26.4765038 17.6864011,25.80035 17.7962495,24.8265038 C17.8848859,24.0241961 17.6750374,23.2849654 17.3341283,22.5734269 C17.1242798,22.1341961 16.8197344,21.7949654 16.4023101,21.5634269 C15.4318556,21.0257346 14.3720071,20.9565038 13.2977647,20.9988115 C12.8364011,21.0165038 12.3773101,21.0795807 11.9189768,21.0680423 C10.5871586,21.0380423 9.52200712,20.4518884 8.74094651,19.367273 C8.20761318,18.6280423 7.90306772,17.7895807 7.82049197,16.87035 C7.71973439,15.7795807 7.71670409,14.6941961 8.05988591,13.6365038 C8.35912833,12.7265038 8.83791621,11.9388115 9.59549197,11.35035 C10.6644314,10.5211192 11.8864011,10.3857346 13.1614011,10.6080423 C14.025795,10.7580423 14.7985223,11.1695807 15.5114011,11.6688115 C17.231098,12.8734269 18.6424617,14.4057346 19.9151889,16.0765038 C20.0212495,16.2149654 20.0303405,16.3265038 19.9712495,16.4857346 C19.5333708,17.6749654 19.0977647,18.8649654 18.6750374,20.0580423 C18.5273101,20.4788115 18.4591283,20.9141961 18.5326132,21.3680423 C18.6068556,21.8126577 18.825795,22.0234269 19.2432192,22.0141961 C19.6129162,22.0049654 19.9712495,21.9388115 20.2962495,21.7588115 C20.5629162,21.6088115 20.8295829,21.4549654 21.0894314,21.2934269 C21.6727647,20.9295807 22.2523101,20.5626577 22.8477647,20.1934269 C22.9068556,20.2711192 22.9538253,20.337273 23.0045829,20.4034269 C23.2795829,20.7880423 23.5341283,21.1911192 23.8356435,21.5541961 C24.6583708,22.5434269 25.4841283,23.5257346 26.3364011,24.487273 C27.8220071,26.1641961 29.4492798,27.6780423 31.3614011,28.85035 C33.2523101,30.007273 35.3000374,30.617273 37.5045829,30.6534269 C38.5848859,30.6711192 39.6386738,30.5026577 40.6886738,30.2565038 C43.4500374,29.6041961 45.6545829,28.0926577 47.400795,25.857273 C49.125795,23.6457346 50.0106435,21.0826577 50.4250374,18.327273 C50.6826132,16.5757346 50.670492,14.8180423 50.3780677,13.0657346 L50.3780677,13.0657346 Z M20.4833708,20.7826577 C20.3053405,20.9057346 20.1189768,21.0134269 19.9265526,21.1095807 C19.5242798,21.3080423 19.3644314,21.1995807 19.3583708,20.7434269 C19.3848859,20.5957346 19.4000374,20.4426577 19.4417041,20.2988115 C19.5477647,19.9111192 19.6720071,19.8480423 20.0394314,19.9888115 C20.3053405,20.0911192 20.4856435,20.2865038 20.5629162,20.5626577 C20.5780677,20.6257346 20.5364011,20.7434269 20.4833708,20.7826577 L20.4833708,20.7826577 Z M28.1295829,15.7849654 C28.7189768,14.9949654 29.3136738,14.1834269 29.925795,13.387273 C30.7962495,12.26035 31.7462495,11.2088115 32.8083708,10.2626577 C33.6871586,9.47804228 34.6371586,8.80496535 35.7318556,8.3811192 C37.2886738,7.77727305 38.8159465,7.91265766 40.2864011,8.67881151 C41.4909465,9.30727305 42.281098,10.3195807 42.8371586,11.5518884 C43.4970071,13.0118884 43.6333708,14.5595807 43.6129162,16.1341961 C43.5917041,17.5611192 43.3848859,18.9434269 42.7720071,20.25035 C42.006098,21.8880423 40.8015526,23.0118884 39.0614011,23.4595807 C37.5462495,23.847273 36.1023101,23.6126577 34.7379162,22.8041961 C33.356098,21.987273 32.2045829,20.9057346 31.1333708,19.7188115 C30.0500374,18.5195807 29.0856435,17.2218884 28.1712495,15.887273 C28.1621586,15.8695807 28.1591283,15.8480423 28.1295829,15.7849654 L28.1295829,15.7849654 Z" id="Imported-Layers" fill="#FFB847"></path>
                                <path d="M48.3742798,22.0626577 C47.8295829,23.3965038 47.1076132,24.6226577 46.1697344,25.7165038 C44.7136738,27.4111192 42.9265526,28.5734269 40.7924617,29.1626577 C37.7886738,29.9918884 34.9098859,29.6941961 32.181098,28.1318884 C30.6038253,27.227273 29.2394314,26.0495807 27.9818556,24.7365038 C26.5318556,23.2249654 25.1644314,21.6357346 23.9333708,19.9318884 C23.8682192,19.8418884 23.8091283,19.7488115 23.7356435,19.637273 C24.1765526,19.3611192 24.5848859,19.0634269 25.025795,18.8349654 C25.8038253,18.4326577 26.3894314,17.8288115 26.895492,17.1288115 C27.0348859,16.9334269 27.1977647,16.7557346 27.3659465,16.5488115 C27.6417041,16.9365038 27.9045829,17.3118884 28.1712495,17.6811192 C29.150795,19.027273 30.1864011,20.3257346 31.375795,21.4880423 C32.3879162,22.477273 33.4773101,23.3634269 34.7523101,23.9941961 C36.5462495,24.8811192 38.3750374,24.9049654 40.2068556,24.1780423 C41.6712495,23.5949654 42.7394314,22.537273 43.4886738,21.1395807 C44.3939768,19.4511192 44.6636738,17.6241961 44.6576132,15.7311192 C44.6515526,14.2349654 44.4500374,12.777273 43.8939768,11.3834269 C43.370492,10.07035 42.5742798,8.97034997 41.425795,8.15034997 C40.4523101,7.45265766 39.3576132,7.10727305 38.1765526,6.99650381 C36.3356435,6.81881151 34.7614011,7.49804228 33.3000374,8.54034997 C32.0364011,9.44188843 30.9265526,10.5211192 29.9500374,11.7257346 C29.070492,12.81035 28.2485223,13.94035 27.3901889,15.0434269 C26.8629162,15.7188115 26.3189768,16.377273 25.7803405,17.0441961 C25.7538253,17.08035 25.7356435,17.1226577 25.7091283,17.17035 C25.4576132,16.9665038 25.2447344,16.7949654 25.025795,16.6149654 C25.4280677,16.1157346 25.8159465,15.6257346 26.2121586,15.1511192 C26.5114011,14.7965038 26.2742798,14.3849654 25.9667041,14.3426577 C25.7886738,14.3188115 25.6470071,14.3788115 25.5348859,14.52035 C25.170492,14.9711192 24.8038253,15.4157346 24.445492,15.8695807 C24.3477647,15.9957346 24.2795829,16.007273 24.1583708,15.8995807 C23.8924617,15.6588115 23.6106435,15.4334269 23.3151889,15.1841961 C23.5136738,14.9318884 23.7030677,14.6941961 23.8924617,14.457273 C24.0962495,14.2049654 24.3038253,13.9580423 24.5076132,13.7057346 C24.6826132,13.4895807 24.6614011,13.1741961 24.4659465,13.0149654 C24.2735223,12.8588115 23.981098,12.8980423 23.806098,13.1080423 C23.4068556,13.5949654 23.0129162,14.0841961 22.6015526,14.5926577 C22.3977647,14.4211192 22.2053405,14.2618884 21.9894314,14.0818884 C22.3235223,13.667273 22.6492798,13.267273 22.9750374,12.867273 C23.9038253,11.7257346 24.8242798,10.5780423 25.7621586,9.44188843 C26.845492,8.13188843 27.9727647,6.86419612 29.2333708,5.72188843 C30.6424617,4.44496535 32.1750374,3.36034997 33.9682192,2.69958074 C35.6318556,2.08650381 37.3417041,1.93650381 39.0939768,2.15881151 C40.875795,2.38419612 42.520492,2.98188843 44.0121586,3.99727305 C45.4121586,4.95265766 46.5250374,6.1911192 47.4038253,7.64804228 C48.3803405,9.26804228 48.9894314,11.0257346 49.3121586,12.8857346 C49.6144314,14.6311192 49.6470071,16.38035 49.4068556,18.1318884 C49.220492,19.4841961 48.8894314,20.797273 48.3742798,22.0626577 Z" id="Path" fill="#FF9C00"></path>
                                <path d="M20.9121586,13.9465038 C20.8000374,14.0934269 20.7583708,14.3011192 20.6871586,14.4841961 C20.6189768,14.6641961 20.5538253,14.8480423 20.4773101,15.0611192 C20.2992798,14.8534269 20.145492,14.6734269 19.9886738,14.4934269 C18.8583708,13.1711192 17.6659465,11.9149654 16.245492,10.9088115 C15.0114011,10.0341961 13.6674617,9.46342689 12.1348859,9.46881151 C9.7318556,9.47804228 7.74927984,10.9926577 7.07731015,13.3426577 C6.51215863,15.3195807 6.52731015,17.2849654 7.41746166,19.1595807 C8.34397681,21.1095807 9.94473439,22.0711192 12.0636738,22.14035 C12.4689768,22.1526577 12.8803405,22.0895807 13.2886738,22.0626577 C13.9462495,22.02035 14.6000374,22.047273 15.2424617,22.2126577 C15.4492798,22.2665038 15.6477647,22.3626577 15.8432192,22.4588115 C16.0917041,22.5818884 16.2780677,22.7657346 16.3932192,23.0295807 C16.5682192,23.4234269 16.7333708,23.8111192 16.7720071,24.2526577 C16.831098,24.9588115 16.606098,25.5357346 16.0295829,25.917273 C15.5826132,26.2118884 15.1030677,26.4880423 14.5970071,26.6449654 C13.8303405,26.8818884 13.0227647,26.9718884 12.2144314,26.9688115 C9.93034045,26.9511192 7.88261318,26.2357346 6.11594651,24.7549654 C4.04700712,23.0241961 2.79852227,20.7849654 2.27731015,18.1318884 C1.67352227,15.0580423 2.22427984,12.1765038 3.84018894,9.51727305 C5.05609803,7.51342689 6.73412833,6.04342689 8.92731015,5.22034997 C10.8326132,4.50496535 12.7682192,4.46342689 14.7273101,4.97419612 C16.6568556,5.47573458 18.3492798,6.44958074 19.906098,7.68727305 C21.0598859,8.60342689 22.1076132,9.6311192 23.0636738,10.7580423 C23.1318556,10.8365038 23.2174617,10.8995807 23.3212495,10.9895807 C22.8856435,11.53035 22.4598859,12.0649654 22.0280677,12.5941961 C21.6523101,13.0388115 21.2674617,13.48035 20.9121586,13.9465038 L20.9121586,13.9465038 Z" id="Path" fill="#FF9C00"></path>
                            </g>
                        </g>
                    </g>
                </g>
            </g>
        </g>
    </g>
</svg>