<?xml version="1.0" encoding="UTF-8" standalone="no"?>
<svg width="89px" height="89px" viewBox="0 0 89 89" version="1.1" xmlns="http://www.w3.org/2000/svg" xmlns:xlink="http://www.w3.org/1999/xlink" xmlns:sketch="http://www.bohemiancoding.com/sketch/ns">
    <!-- Generator: Sketch 3.3.3 (12081) - http://www.bohemiancoding.com/sketch -->
    <title>icon</title>
    <desc>Created with Sketch.</desc>
    <defs></defs>
    <g id="Page-1" stroke="none" stroke-width="1" fill="none" fill-rule="evenodd" sketch:type="MSPage">
        <g id="home" sketch:type="MSArtboardGroup" transform="translate(-347.000000, -1231.000000)">
            <g id="challenge1-copy" sketch:type="MSLayerGroup" transform="translate(347.000000, 1231.000000)">
                <g id="icon" sketch:type="MSShapeGroup">
                    <g id="Oval-36-+-Oval-35">
                        <circle id="Oval-36" fill="#FBFBFB" cx="44.5" cy="44.5" r="44.5"></circle>
                        <circle id="Oval-35" fill="#F6F4F4" cx="44.5" cy="44.5" r="24.5"></circle>
                    </g>
                    <g id="Imported-Layers" transform="translate(20.000000, 20.000000)">
                        <path d="M25.0478261,38.8927536 L24.0434783,40.2318841 C23.7826087,40.5768116 21.5181159,43.676087 21.5181159,46.2949275 C21.5181159,48.242029 23.1007246,49.8246377 25.0478261,49.8246377 C26.9956522,49.8246377 28.5782609,48.242029 28.5782609,46.2949275 C28.5782609,43.676087 26.3108696,40.5768116 26.0528986,40.2318841 L25.0478261,38.8927536 Z" id="Path" fill="#FFB847"></path>
                        <path d="M25.0478261,48.5702899 C23.7913043,48.5702899 22.7724638,47.5514493 22.7724638,46.2949275 C22.7724638,44.0188406 25.0478261,40.9847826 25.0478261,40.9847826 C25.0478261,40.9847826 27.323913,44.0188406 27.323913,46.2949275 C27.323913,47.5543478 26.3050725,48.5702899 25.0478261,48.5702899 L25.0478261,48.5702899 Z" id="Fill-1" fill="#FFB847"></path>
                        <path d="M49.4565217,11.5463768 L47.0137681,11.5463768 L44.7891304,4.85434783 L37.5876812,2.44855072 L32.6876812,2.44855072 L30.4181159,4.72463768 L26.5282609,4.72463768 L24.2471014,0.175362319 L19.1717391,0.175362319 L10.0971014,4.72463768 L5.25362319,4.72463768 L2.98623188,11.5463768 L0.543478261,11.5463768 L0.543478261,15.076087 L2.81376812,15.076087 L2.81376812,19.3442029 L20.9637681,30.7289855 L20.9637681,37.8311594 L29.0362319,37.8311594 L29.0362319,30.7289855 L47.2456522,19.3442029 L47.2456522,15.076087 L49.4565217,15.076087 L49.4565217,11.5463768 Z" id="Path" fill="#FF9C00"></path>
                        <path d="M45.9891304,18.6478261 L27.7826087,30.0326087 L27.7826087,36.5775362 L22.2173913,36.5775362 L22.2173913,30.0326087 L4.0673913,18.6478261 L4.0673913,15.0731884 L45.9891304,15.0731884 L45.9891304,18.6478261 Z" id="Path" fill="#FF9C00"></path>
                        <path d="M6.16231884,5.97826087 L9.7942029,5.97826087 L11.6449275,11.5463768 L4.31086957,11.5463768 L6.16231884,5.97826087 Z" id="Path" fill="#FFB847"></path>
                        <path d="M19.4688406,1.42971014 L23.4717391,1.42971014 L25.4615942,5.39782609 L23.4065217,11.5463768 L12.9673913,11.5463768 L11.0137681,5.66666667 L19.4688406,1.42971014 Z" id="Path" fill="#FFB847"></path>
                        <path d="M26.5934783,5.97826087 L30.4181159,5.97826087 L35.9717391,11.5463768 L24.7311594,11.5463768 L26.5934783,5.97826087 Z" id="Path" fill="#FFB847"></path>
                        <path d="M33.2086957,3.70217391 L37.384058,3.70217391 L43.7956522,5.84492754 L45.692029,11.5463768 L37.7434783,11.5463768 L31.5644928,5.35 L33.2086957,3.70217391 Z" id="Path" fill="#FFB847"></path>
                    </g>
                </g>
            </g>
        </g>
    </g>
</svg>