<?xml version="1.0" encoding="UTF-8" standalone="no"?>
<svg width="89px" height="89px" viewBox="0 0 89 89" version="1.1" xmlns="http://www.w3.org/2000/svg" xmlns:xlink="http://www.w3.org/1999/xlink" xmlns:sketch="http://www.bohemiancoding.com/sketch/ns">
    <!-- Generator: Sketch 3.3.3 (12081) - http://www.bohemiancoding.com/sketch -->
    <title>icon</title>
    <desc>Created with Sketch.</desc>
    <defs></defs>
    <g id="Page-1" stroke="none" stroke-width="1" fill="none" fill-rule="evenodd" sketch:type="MSPage">
        <g id="home" sketch:type="MSArtboardGroup" transform="translate(-771.000000, -1666.000000)">
            <g id="solution2-copy" sketch:type="MSLayerGroup" transform="translate(771.000000, 1666.000000)">
                <g id="icon" sketch:type="MSShapeGroup">
                    <g id="Oval-36-+-Oval-35-Copy-7">
                        <ellipse id="Oval-36" fill="#FBFBFB" cx="44.5" cy="44.5" rx="44.5" ry="44.5"></ellipse>
                        <ellipse id="Oval-35" fill="#F6F4F4" cx="44.5" cy="44.5" rx="24.5" ry="24.5"></ellipse>
                    </g>
                    <g id="Oval-36-+-Oval-35-Copy-3-+-Group" transform="translate(20.000000, 20.000000)">
                        <g id="Group">
                            <path d="M48.8953125,19.7100556 L47.4085937,19.7100556 L41.0273438,2.29794444 C41.6164062,1.76594444 41.778125,0.882388889 41.3664062,0.168388889 L40.603125,0.6055 C40.73125,0.827166667 40.74375,1.08227778 40.6648437,1.30472222 L40.5726563,1.05505556 C40.5085937,0.882388889 40.34375,0.7665 40.1609375,0.7665 C39.978125,0.7665 39.8101562,0.882388889 39.7492187,1.05505556 L39.4929687,1.75738889 C39.3523437,1.68427778 39.2273437,1.58705556 39.1445312,1.44705556 C39.0867187,1.34672222 38.9921875,1.27438889 38.8789062,1.24327778 C38.7664062,1.21294444 38.6476562,1.2285 38.546875,1.28605556 L26.6359375,8.12816667 L26.6359375,7.81238889 C26.6359375,7.57205556 26.4375,7.3745 26.1960937,7.3745 L25.2070312,7.3745 L26.5835937,5.57627778 C26.675,5.45494444 26.7,5.29316667 26.6445312,5.15083333 L24.73125,0.253166667 C24.6,-0.0843888889 24.0445312,-0.0843888889 23.9132813,0.253166667 L22,5.15083333 C21.9453125,5.29316667 21.9664062,5.45494444 22.0609375,5.57627778 L23.4375,7.3745 L22.4453125,7.3745 C22.2046875,7.3745 22.00625,7.57205556 22.00625,7.81238889 L22.00625,10.7835 L9.65859375,17.8807222 C9.4484375,18.0020556 9.378125,18.2696111 9.496875,18.4796111 C9.59765625,18.6522778 9.621875,18.8498333 9.58515625,19.0442778 L9.53984375,18.9167222 C9.47578125,18.7432778 9.3109375,18.6281667 9.12734375,18.6281667 C8.94453125,18.6281667 8.7765625,18.7432778 8.715625,18.9167222 L8.44375,19.6579444 C8.2765625,19.5879444 8.1296875,19.4790556 8.03828125,19.3180556 L7.278125,19.7551667 C7.4765625,20.0958333 7.77890625,20.3447222 8.1421875,20.4878333 L1.8828125,37.5686111 L0.4390625,37.5686111 C0.1984375,37.5686111 0,37.7653889 0,38.0057222 C0,40.6579444 4.01875,42.7392778 9.14921875,42.7392778 C14.2789063,42.7392778 18.2984375,40.6610556 18.2984375,38.0057222 C18.2984375,37.7653889 18.1,37.5686111 17.8585938,37.5686111 L16.3726562,37.5686111 L9.97578125,20.1106111 C10.1898438,19.9013889 10.3484375,19.6400556 10.4304687,19.3452778 C10.5101562,19.0473889 10.5101562,18.7409444 10.4304687,18.4516111 L22.5671875,11.4765 L22.76875,11.4765 L22.76875,40.0839444 L22.2101563,40.0839444 C21.9695312,40.0839444 21.7710937,40.2815 21.7710937,40.5210556 L21.7710937,42.0159444 L18.5546875,42.0159444 C16.5492187,42.0159444 14.9140625,43.6173889 14.8679687,45.6046111 L12.8046875,45.6046111 C12.5640625,45.6046111 12.365625,45.8021667 12.365625,46.0417222 L12.365625,48.5547222 C12.365625,48.7942778 12.5640625,48.9918333 12.8046875,48.9918333 L35.8335937,48.9918333 C36.075,48.9918333 36.2726562,48.7942778 36.2726562,48.5547222 L36.2726562,46.0386111 C36.2726562,45.7990556 36.075,45.6015 35.8335937,45.6015 L33.7703125,45.6015 C33.725,43.6142778 32.0890625,42.0128333 30.084375,42.0128333 L26.8703125,42.0128333 L26.8703125,40.5187222 C26.8703125,40.2783889 26.671875,40.0808333 26.43125,40.0808333 L25.8726562,40.0808333 L25.8726562,11.4733889 L26.1929687,11.4733889 C26.434375,11.4733889 26.6328125,11.2758333 26.6328125,11.0355 L26.6328125,9.13694444 L38.6476562,2.23105556 C38.8,2.38272222 38.9859375,2.49238889 39.184375,2.58027778 L32.9164062,19.7100556 L31.4757813,19.7100556 C31.234375,19.7100556 31.0359375,19.9076111 31.0359375,20.1471667 C31.0359375,22.7993889 35.0554688,24.8807222 40.1851562,24.8807222 C45.315625,24.8807222 49.334375,22.8025 49.334375,20.1471667 C49.334375,19.9045 49.1359375,19.7100556 48.8953125,19.7100556 L48.8953125,19.7100556 Z" id="Imported-Layers" fill="#FF9C00"></path>
                            <path d="M24.3226562,1.6205 L25.7382812,5.24183333 L24.3226562,7.09216667 L22.90625,5.24183333 L24.3226562,1.6205 Z" id="Path" fill="#FF9C00"></path>
                            <path d="M8.68828125,21.5448333 L8.68828125,37.5686111 L2.81640625,37.5686111 L8.68828125,21.5448333 Z" id="Path" fill="#F5F4F4"></path>
                            <path d="M9.15234375,41.8642778 C4.98671875,41.8642778 1.41875,40.3390556 0.93671875,38.4436111 L17.3640625,38.4436111 C16.8820313,40.3390556 13.3179688,41.8642778 9.15234375,41.8642778 L9.15234375,41.8642778 Z" id="Path" fill="#FFB847"></path>
                            <path d="M9.5671875,37.5686111 L9.5671875,21.5448333 L15.4390625,37.5686111 L9.5671875,37.5686111 Z" id="Path" fill="#F5F4F4"></path>
                            <path d="M35.396875,46.4765 L35.396875,48.1137222 L13.2476562,48.1137222 L13.2476562,46.4765 L35.396875,46.4765 Z" id="Path" fill="#FF9C00"></path>
                            <path d="M25.9945313,40.9558333 L25.9945313,42.4507222 C25.9945313,42.6910556 26.1929688,42.8878333 26.434375,42.8878333 L30.0875,42.8878333 C31.6070313,42.8878333 32.8429688,44.0972778 32.8882813,45.6015 L15.75625,45.6015 C15.8015625,44.1003889 17.0375,42.8878333 18.5578125,42.8878333 L22.2101563,42.8878333 C22.4515625,42.8878333 22.65,42.6910556 22.65,42.4507222 L22.65,40.9558333 L23.2085938,40.9558333 C23.4492188,40.9558333 23.6476563,40.7582778 23.6476563,40.5187222 L23.6476563,11.0355 C23.6476563,10.7959444 23.4492188,10.5983889 23.2085938,10.5983889 L22.8851563,10.5983889 L22.8851563,8.2495 L25.7570313,8.2495 L25.7570313,10.5983889 L25.4359375,10.5983889 C25.1953125,10.5983889 24.996875,10.7959444 24.996875,11.0355 L24.996875,40.5187222 C24.996875,40.7582778 25.1953125,40.9558333 25.4359375,40.9558333 L25.9945313,40.9558333 Z" id="Path" fill="#FF9C00"></path>
                            <path d="M46.471875,19.7100556 L40.6007813,19.7100556 L40.6007813,3.68316667 L46.471875,19.7100556 Z" id="Path" fill="#F5F4F4"></path>
                            <path d="M39.721875,3.68316667 L39.721875,19.7069444 L33.853125,19.7069444 L39.721875,3.68316667 Z" id="Path" fill="#F5F4F4"></path>
                            <path d="M40.1851562,24.0026111 C36.0195312,24.0026111 32.4523437,22.4773889 31.9703125,20.5819444 L48.3976562,20.5819444 C47.915625,22.4773889 44.3507812,24.0026111 40.1851562,24.0026111 L40.1851562,24.0026111 Z" id="Path" fill="#FFB847"></path>
                        </g>
                    </g>
                </g>
            </g>
        </g>
    </g>
</svg>